<?xml version="1.0" encoding="UTF-8" standalone="no"?><!DOCTYPE svg PUBLIC "-//W3C//DTD SVG 1.1//EN" "http://www.w3.org/Graphics/SVG/1.1/DTD/svg11.dtd"><svg width="100%" height="100%" viewBox="0 0 4500 4500" version="1.1" xmlns="http://www.w3.org/2000/svg" xmlns:xlink="http://www.w3.org/1999/xlink" xml:space="preserve" xmlns:serif="http://www.serif.com/" style="fill-rule:evenodd;clip-rule:evenodd;stroke-linejoin:round;stroke-miterlimit:2;"><rect id="Página-1" serif:id="Página 1" x="0" y="0" width="4500" height="4500" style="fill:none;"/><g id="Capa-1" serif:id="Capa 1"><path d="M3040.857,854.41c-32.199,0 -57.331,-25.984 -57.331,-57.615c0,-31.644 25.132,-57.628 57.331,-57.628c31.915,0 57.615,25.984 57.615,57.628c0,31.631 -25.7,57.615 -57.615,57.615m995.068,2611.81c-0.556,-0.271 -1.124,-0.556 -1.977,-0.84c-289.226,-170.326 -609.244,-294.033 -949.314,-361.261c-1.124,-0.271 -1.977,-0.556 -3.101,-0.84c110.153,-92.929 205.058,-203.081 280.75,-326.801c5.931,-9.316 11.862,-19.201 17.508,-29.085c10.169,-18.077 20.066,-36.153 29.667,-54.23c2.545,-5.091 5.362,-10.453 7.908,-15.544c3.385,-6.486 6.771,-13.27 9.6,-20.041c85.874,-178.802 134.16,-379.338 134.16,-590.896c0,-9.316 -0.271,-18.632 -0.271,-27.961c-0.284,-9.316 -0.569,-18.645 -1.137,-27.677c-0.284,-7.908 -0.569,-15.531 -1.137,-23.168c0,-3.101 -0.271,-6.215 -0.556,-9.316c-0.569,-7.339 -1.137,-14.963 -1.693,-22.599l0,-1.693c-0.569,-6.771 -1.408,-13.839 -1.977,-20.622c-1.137,-12.417 -2.545,-24.847 -4.238,-37.277c-37.006,-300.532 -171.45,-570.829 -371.43,-777.864c13.283,-331.323 183.312,-621.118 437.806,-799.055l-49.992,-122.298c-200.264,219.465 -446.838,394.869 -724.203,511.237c-62.138,25.984 -125.412,48.855 -189.811,68.624c-7.623,2.545 -15.531,4.807 -23.155,7.068c-135.297,40.107 -276.525,66.66 -421.422,77.953l35.869,86.145l10.169,0c168.621,0 317.2,90.383 397.97,226.249c41.528,69.477 64.967,149.975 64.967,236.973c0,37.277 -4.238,73.159 -12.43,107.891c-14.691,59.889 -40.663,115.243 -75.692,163.543c0,0 0,0.284 -0.284,0.284l-2.261,2.83l-36.722,44.617l-123.707,-101.676c-406.447,-333.856 -1006.658,-275.103 -1340.501,131.059l-1125.287,1369.6l113.267,93.2l1153.804,-1404.332l73.431,60.445l-1153.804,1404.06l112.698,92.631c0.284,0 0.569,0.284 0.853,0.569l1153.804,-1404.344l73.159,60.445l-1149.579,1399.266c43.505,26.824 88.975,48.855 135.581,65.807l1127.535,-1371.861l73.444,60.161l-1100.995,1339.946c58.752,12.146 118.629,16.94 178.221,14.407l1036.028,-1261.14l73.444,60.161l-970.789,1181.481c140.672,-33.608 272.287,-109.3 374.247,-224.827l0.569,0.853l-1.124,1.408l-250.825,305.895l-0.284,0l-443.156,540.322l0,0.284l64.967,158.465c4.225,-4.238 8.463,-8.476 12.986,-12.714c461.814,-456.438 1096.473,-738.041 1797.224,-738.041l5.375,0c6.771,0 13.554,0 20.338,0.284c7.055,0 14.123,0 21.178,0.271c8.761,0 17.237,0.284 25.984,0.569c10.453,0.284 20.906,0.569 31.644,1.137c31.631,1.124 63.546,2.817 94.893,5.647c15.544,1.124 31.36,2.545 46.891,3.954c19.769,1.977 39.267,3.954 59.037,6.215c127.092,14.963 251.096,39.539 371.986,72.862c9.316,2.545 18.645,5.091 27.961,7.921c0.556,0 1.124,0 1.693,0.271c14.691,4.238 29.37,8.476 43.777,13.283c14.976,4.238 29.951,9.032 44.63,13.839c14.691,4.807 29.37,9.6 44.061,14.976c29.37,9.885 58.468,20.609 87.282,31.915c9.6,3.67 19.201,7.623 28.801,11.577c18.929,7.623 38.13,15.531 57.06,23.723c9.6,3.954 18.929,8.192 28.53,12.43c9.316,4.238 18.645,8.476 27.961,12.714c8.192,3.954 16.384,7.623 24.576,11.577c11.293,5.078 22.87,10.737 34.176,16.384c7.623,3.954 15.531,7.623 23.439,11.577c10.169,5.362 20.622,10.737 30.791,16.1c8.761,4.238 17.224,9.032 25.7,13.554c9.316,4.807 18.361,9.6 27.393,14.976c7.352,3.954 14.691,7.908 22.031,12.146c2.83,1.693 5.659,3.101 8.761,4.794c7.623,4.522 15.531,9.045 23.168,13.567c72.022,42.084 141.499,87.553 209.012,136.421c8.463,5.931 16.668,12.146 25.132,18.361c8.476,6.202 16.668,12.417 25.144,18.917c8.192,6.215 16.668,12.714 24.847,19.214c34.189,26.54 67.797,54.23 100.552,82.747c7.623,6.499 15.26,13.283 22.883,20.066c15.531,13.554 30.507,27.393 45.469,41.231c7.908,7.339 15.815,14.691 23.723,22.315c7.636,7.055 15.26,14.407 22.599,22.031c7.352,6.784 14.691,13.839 21.759,20.906l64.67,-158.18c-169.46,-161.553 -359.556,-301.656 -566.307,-415.763c-13.839,-7.339 -27.677,-14.976 -41.516,-22.315c-14.691,-7.623 -29.667,-15.531 -44.63,-23.155c-16.953,-8.476 -33.892,-16.668 -50.56,-24.86c-17.508,-8.192 -35.029,-16.384 -52.537,-24.292c-28.814,-12.999 -58.184,-25.7 -87.838,-37.846c-45.482,-18.645 -91.805,-36.153 -138.682,-52.537c-12.999,-4.522 -26.269,-9.045 -39.267,-13.554c-10.169,-3.114 -20.054,-6.499 -30.222,-9.613c-15.815,-5.078 -31.915,-9.885 -47.731,-14.678c-13.567,-4.238 -27.406,-8.192 -41.244,-11.862c-29.085,-8.192 -58.468,-15.815 -88.406,-23.168c-21.462,-5.362 -43.208,-10.169 -64.954,-14.963c-13.567,-3.114 -27.121,-5.931 -40.676,-8.761c-8.761,-1.408 -17.521,-3.385 -26.269,-5.091c-11.022,-1.977 -22.031,-4.225 -33.336,-5.931c-13.554,-2.533 -27.393,-5.078 -40.947,-7.055c-8.761,-1.408 -17.508,-2.83 -26.269,-4.238c-11.022,-1.693 -22.315,-3.385 -33.892,-4.807c-22.031,-3.385 -44.63,-6.215 -67.229,-8.748l-1.124,0c-100.268,-11.577 -202.241,-17.508 -305.61,-17.792c135.568,-28.53 263.526,-77.682 380.462,-143.489c13.554,1.693 27.109,3.67 40.663,5.647c6.784,1.137 13.567,1.977 20.054,3.114c6.784,1.124 13.567,2.261 20.338,3.385c0.569,0 1.693,0 2.261,0.284c18.645,3.101 37.006,6.215 55.367,9.6c2.817,0.569 5.647,1.124 8.192,1.408c1.693,0.284 3.101,0.569 4.509,1.137c8.476,1.408 16.953,2.817 25.429,4.794c10.44,1.977 20.893,4.238 31.347,6.215c7.908,1.693 15.531,3.398 23.168,5.091c23.723,5.078 47.162,10.453 70.601,16.384c8.205,1.977 16.668,3.954 25.144,6.215c0.569,0 1.124,0.271 1.693,0.271c5.647,1.421 11.293,3.114 16.668,4.522l16.94,4.238c11.59,3.101 23.168,6.499 34.745,9.6c21.746,6.215 43.208,12.43 64.399,18.929c17.508,5.362 35.029,11.009 52.537,16.655c12.146,4.238 24.576,8.192 37.006,12.43c12.146,4.238 24.279,8.476 36.709,12.999c1.137,0.569 2.545,0.853 3.954,1.408c11.022,3.954 22.315,7.908 33.336,12.146c0.284,0.284 0.556,0.284 0.84,0.284c0.284,0 0.284,0.284 0.569,0.284c0.284,0 0.853,0.284 1.137,0.569c10.156,3.67 20.054,7.339 29.938,11.293l36.425,14.407c4.807,1.977 9.329,3.954 14.123,5.647c4.522,1.977 9.329,3.954 13.839,5.931c10.737,4.238 21.475,9.045 31.928,13.554c10.725,4.522 21.462,9.045 31.915,13.839c10.453,4.522 20.893,9.329 31.347,14.123c9.885,4.522 19.769,9.045 29.383,13.851c1.408,0.556 2.817,1.408 4.238,1.977c9.6,4.509 19.201,9.032 28.801,13.839c0.284,0.284 0.853,0.556 1.137,0.556c5.362,2.545 10.725,5.375 15.815,7.908c1.693,0.853 3.385,1.421 4.794,2.261c8.761,4.522 17.805,8.761 26.269,13.567c1.706,0.556 3.398,1.408 5.091,2.248c5.647,3.114 11.862,6.215 17.792,9.329c0.853,0.569 1.693,1.124 2.83,1.408c1.964,1.137 3.954,2.261 5.931,3.385c8.463,4.238 16.94,8.761 25.416,13.283c1.977,1.124 3.954,2.261 5.931,3.385c2.261,1.408 4.807,2.545 6.771,3.67c11.59,6.215 23.168,12.714 34.474,19.214c18.077,10.169 36.14,20.622 54.23,31.347c11.577,6.784 23.155,13.839 34.732,20.906c3.954,2.545 8.476,5.362 12.714,7.908c8.761,5.362 17.237,11.009 25.984,16.384c6.499,4.238 12.999,8.192 19.214,12.43c1.977,1.124 4.225,2.533 6.215,3.954c1.124,0.556 2.248,1.408 3.101,1.977c7.339,4.794 14.407,9.316 21.462,14.394c0.569,0 1.137,0.569 1.693,0.853c1.421,0.853 2.83,1.977 4.238,2.83c3.398,2.533 7.352,4.794 10.737,7.339c9.316,6.215 18.361,12.43 27.677,18.929c6.215,3.954 12.43,8.179 18.361,12.701c8.476,5.931 16.668,11.862 24.86,17.792c2.817,1.977 5.931,3.954 8.476,6.215c2.817,1.977 5.647,3.954 8.463,5.931c0.284,0.284 0.284,0.284 0.569,0.284c10.737,7.908 21.746,16.1 32.484,24.292c5.078,3.67 10.44,7.623 15.815,11.862c8.476,6.499 16.94,12.999 25.416,19.769c3.114,2.261 5.931,4.522 9.045,7.068c0.569,0.284 0.84,0.84 1.408,1.408c1.408,0.853 2.83,1.977 3.954,2.83c7.352,5.647 14.407,11.293 21.746,17.508c0.284,0 0.569,0.284 0.853,0.569c1.124,0.84 2.261,1.977 3.385,2.817c0.284,0.284 0.569,0.569 0.853,0.853c0.84,0.284 1.408,0.853 1.977,1.408c11.862,9.329 23.439,18.929 35.016,28.814c2.545,2.261 5.091,4.238 7.636,6.499c2.533,2.261 5.078,4.238 7.623,6.499c10.169,8.463 20.338,17.224 30.507,25.984c2.817,2.533 5.647,5.078 8.463,7.623c12.43,10.725 24.576,21.746 36.438,32.755l10.453,-25.416l61.582,-150.26c-143.489,-125.412 -298.84,-237.826 -464.075,-334.993" style="fill:#1e1e1e;fill-rule:nonzero;"/></g></svg>